<?xml version="1.0" encoding="UTF-8"?>
<svg id="Layer_1" xmlns="http://www.w3.org/2000/svg" version="1.1" viewBox="0 0 1000 1000">
  <!-- Generator: Adobe Illustrator 29.6.0, SVG Export Plug-In . SVG Version: 2.1.1 Build 207)  -->
  <path d="M364.9,33c-.3-2.1,107.3-49.5,213.2,0,70.9,33.1,105.7,93.1,118.5,118.5-7.1,3.2-14.2,6.4-21.4,9.6-25.7-45.2-64.9-94.8-125.4-120.9-91.5-39.6-184.8-5.3-185-7.2Z"/>
  <path d="M557.5,489.1c2.1,2.7,99.7-37.6,142.1-134.9,24-55,21.5-107.9,16.6-140.6,0-.3.1-.5.4-.5,0,0,6.5-.5,8-2.3s1.2-2.7.8-3.8c-.3-.8-1.1-2.7-1.3-3.6-.3-1.3,0-3.9-.4-5.1s-1.8-2.3-2.1-3.3c-.4-1.3,0-3.3-.3-4.6-.2-1-1.1-2.6-1.7-3.4-1-1.2-1.2-5-2.4-6-1.6-1.2-7.9-.4-7.9-.4-2.5-5.4-5-10.9-7.6-16.3-.1-.2,0-.5.2-.6,9.4-4.2,18.9-8.4,28.3-12.7.3-.1.7.1.7.5-.3,5-.6,9.9-.9,14.9,0,.4.5.6.8.4,11-10,22.1-20,33.1-29.9.3-.3.1-.8-.3-.8-15.3.2-30.6.3-45.9.5-.4,0-.6.5-.3.8,3.2,3,6.5,6,9.7,9.1.2.2.2.6-.1.8-85.8,35.6-171.6,71.3-257.4,106.9-.3.1-.4.4-.2.7l1.7,2.8c.1.2.4.3.6.2,68.8-28.2,137.6-56.4,206.5-84.6.2-.1.5,0,.6.3,17.1,49.7,27.8,111.5,6.6,172.4-33.6,96.3-129.7,140.7-127.6,143.4Z"/>
  <path d="M692.2,224.4c-2.8,2.2-5.5.9-9.7,3.7-6.6,4.4-7.9,13-8.3,14.7-1.8,8.1-19.6,24.7-92.2,62.5-.5-3.2-1-6.4-1.6-9.6-1.6,4.8-3.3,9.6-4.9,14.5-9,7.8-19.1,15.9-30.5,24-15,10.7-29.4,19.3-42.6,26.4,16.1,6.5,26.8,21.7,27.4,38.5.6,18.8-11.7,36.2-30.2,42.4,2,.5,5.8,1.1,10.3,0,5.4-1.3,8.9-4.3,10.3-5.7-2.5,8.3-4.7,18.9-5.2,31.3-.8,20.1,8,30.2,11.6,58.1,1.1,8.8,1.5,16.2,1.6,20.9-8.9.9-17.7,1.9-26.6,2.8,18.4,1,34.4,3.4,47.3,5.9,10.7,2.1,24.4,6.2,51.7,14.5,18,5.4,30,9.4,41.9,20.2,1.9,1.7,5.1,3.5,7,7.2,6.3,13-8.1,31.1-10.9,34.4-20.9,21.6-39.2,37.5-51.7,47.8-41.7,34.5-85.3,64.1-85.3,64.1-17.8,12.1-29.3,19.2-42.9,34.4-13.7,15.3-21.9,30.6-26.9,41.3-1.3,1.3-2.9,2.5-4.7,2.3-4.6-.5-8.2-11-7.8-19.4.6-11.5,8.4-12.2,14.7-26.4,8.1-18.2.2-28,10.1-37.7,6-5.9,15-8,17.1-8.5,7.2-1.7,12.6-.9,15-.8,19.2.9,36.3-36.4,59.4-65.6,8.3-10.5,21.6-25.3,41.9-40.6-5.6,1.7-11.5,3.2-17.7,4.4-42.6,8.3-80.5.3-107.1-9,7.6,3.9,15.2,7.8,22.7,11.7-12.2,18-24.3,36.1-36.5,54.1-3-3.7-6-7.3-9-11,1.3,2.9,6.5,14.8,2.1,28.9-5.5,17.5-21.2,24.2-23.4,25.1-17.7,47.8-35.6,82.5-48.9,105.8-8.5,14.8-23,38.8-41.3,75.4-4.2,8.4-12.6,19.2-17.2,36.2-7,25.6,2.6,43.4-2.8,45.5-4.5,1.8-15.2-9.8-18.3-22-1.7-6.7-.9-13.3-.3-18.6,1.2-10.4,3.5-11.3,3.1-18.3-.4-7.9-3.6-8.4-5.5-18.6-1.2-6.1-2.7-14.5,1.4-20.3,3.8-5.3,9.3-4.2,16.5-7.2,16.2-6.8,22.5-27,26.2-38.9,5.2-16.9,4.2-29.1,4.5-38.9,1.2-34.9,20.8-60.2,32.7-78.5,6.7-10.3,16.8-24.2,31.4-38.9,1.5-15.5,3-31,4.5-46.5,3.2-12.7,6.4-25.5,9.6-38.2-1.5-2.9-17.4-36,.7-68.6,13.9-24.9,38.2-32.6,43.4-34.1-4.1-8.5-10.6-19.7-20.7-31-9.1-10.3-16.1-14.5-24.5-21.7-9.9-8.5-22.7-22-34.5-43.1-11.6,10.4-22.1,16.2-29.3,19.6-18.3,8.6-24.4,5.5-39.3,14.8-13.6,8.5-13.3,14-25.8,19.3-4.1,1.7-20.3,8.5-30.3,2.1-14.9-9.6-4.7-44.9-2.8-51.7,3.4-12,12.6-36.6,40.7-59.9-.9-2.6-2.3-8.1-1-14.8,1.5-8.1,6-13.2,7.9-15.2,11.1-8.5,21-15.3,22.4-13.8,1.7,1.8-9.9,13.1-7.6,16.2,3.7,5,40.6-18,43.4-13.9,2.8,4.2-18.8,7.1-25.1,14.2s-2.2,4.8-1,7.6c1,2.5,3.4,3.2,3.4,5.5,0,1.9-1.6,2.3-1.4,4.1.2,2.2,2.1,2.5,2.2,4.5.1,2-1.4,2.7-.9,4.2s2.3-.6,1.8,2.6c-.3,2-21.6,4.3-35.2,15.1-18.3,14.5-20.8,48.3-14.5,48.2,9.3-.2,34.1-25.8,34.1-25.8l2.1,8.3s6.9-21.7,23.1-34.1c14.2-10.9,23-2.4,42.4-15.2,14.9-9.8,19.7-21.4,21-25.1,1.4-3.9,6.2-17.3-.3-23.1-3.6-3.2-9.7-3.6-14.1-1.7-5.1,2.1-5.2,6.1-9,8.6-7.5,5-21.8-.9-30-7.9-14.6-12.5-19.1-36.6-10-51.3,5.2-8.5,15.6-14.9,18.6-12.7,2.5,1.7-.1,9.1.7,9.3,1.2.3,4.3-16.2,12.4-26.5,9.4-12,27.7-18.8,45.1-16.9,58.2,6.5,32.7,43.5,40.8,52,5.2,5.5,12.1,8,14.1,12.2,0,0,.6,1,.6,1.6.1,1.2-.6,2.2-1.4,2.9-1.8,1.6-4.6.7-4.8,1.6-.3,1.1,4.1,2.7,4.2,5.4.2,2.2-3.2,2.9-2.9,5.2.2,1.8,2.9,2.1,3,3.8.1,2.2-2.8,3-2.9,5.3,0,2.3,3.4,2.8,4.5,5.9.9,2.7-.5,6.4-2.6,8.3-5.4,4.7-13.9-3.4-20.8.7-6,3.5-6.7,13.6-5.7,19.5,1.2,7.1,5.9,14.2,8.4,13.6,1.7-.4,4.7-4.2,5.2-4.7,7.8-6.8,22-20.1,105.2-42.2,14.7-15,35.5-33.1,63.2-49.3,18.6-10.8,36.1-18.3,51.2-23.6-.6-1.4-3.9-10.1.5-19.1,2.5-5.1,8.6-12.6,14-11.5,9.3,1.9,14.7,29.8,6,36.6Z"/>
</svg>